<svg width="148" height="148" viewBox="0 0 148 148" fill="none" xmlns="http://www.w3.org/2000/svg">
<path d="M136.08 54.7147C135.972 54.1362 135.672 53.6004 135.201 53.1933L107.536 29.6429C107.279 29.4286 107 29.2786 106.7 29.1714C106.4 29.0643 106.1 29 105.779 29H42.2207C41.8993 29 41.5993 29.0643 41.2993 29.1714C40.9993 29.2786 40.7207 29.4286 40.4636 29.6429L12.7988 53.1933C12.3274 53.6004 12.0274 54.1362 11.9202 54.7147C11.7488 55.5505 11.9631 56.4505 12.6059 57.1148L72.0498 118.187C72.5855 118.744 73.2927 119.002 73.9999 119.002C74.707 119.002 75.4142 118.744 75.9499 118.187L135.394 57.1148C136.037 56.4505 136.251 55.5505 136.08 54.7147Z" fill="#5DC9F4"/>
<path d="M50.428 54.7132H11.9202C12.0273 54.1346 12.3273 53.5989 12.7988 53.1918L40.4635 29.6414C40.7207 29.4271 40.9992 29.2771 41.2992 29.1699L50.428 54.7132Z" fill="#67D7F9"/>
<path d="M74.0001 29L50.4283 54.7147L41.2996 29.1714C41.5996 29.0643 41.8996 29 42.221 29H74.0001Z" fill="#7AE3FC"/>
<path d="M73.9999 119C73.2927 119 72.5855 118.743 72.0498 118.185L12.6059 57.1129C11.9631 56.4486 11.7488 55.5486 11.9202 54.7129H50.428L73.9999 119Z" fill="#56B7ED"/>
<path d="M106.701 29.1714L97.5718 54.7147L74 29H105.779C106.101 29 106.401 29.0643 106.701 29.1714Z" fill="#7AE3FC"/>
<path d="M136.08 54.7132H97.5718L106.701 29.1699C107.001 29.2771 107.279 29.4271 107.536 29.6414L135.201 53.1918C135.672 53.5989 135.972 54.1346 136.08 54.7132Z" fill="#67D7F9"/>
<path d="M135.394 57.1129L75.95 118.185C75.4143 118.743 74.7072 119 74 119L97.5718 54.7129H136.08C136.251 55.5486 136.037 56.4486 135.394 57.1129Z" fill="#56B7ED"/>
<path d="M97.5719 54.7147H50.4282L74.0001 29L97.5719 54.7147Z" fill="#67D7F9"/>
</svg>
