<svg width="148" height="148" viewBox="0 0 148 148" fill="none" xmlns="http://www.w3.org/2000/svg">
<path d="M108.31 133.901H38.8235C35.9883 133.901 33.2692 132.775 31.2644 130.77C29.2596 128.765 28.1333 126.046 28.1333 123.211V32.3445C28.1333 29.5093 29.2596 26.7902 31.2644 24.7854C33.2692 22.7806 35.9883 21.6543 38.8235 21.6543H57.5313V26.9994H38.8235C37.4059 26.9994 36.0463 27.5625 35.0439 28.5649C34.0415 29.5673 33.4784 30.9269 33.4784 32.3445V123.211C33.4784 124.629 34.0415 125.988 35.0439 126.991C36.0463 127.993 37.4059 128.556 38.8235 128.556H108.31C109.727 128.556 111.087 127.993 112.089 126.991C113.092 125.988 113.655 124.629 113.655 123.211V32.3445C113.655 30.9269 113.092 29.5673 112.089 28.5649C111.087 27.5625 109.727 26.9994 108.31 26.9994H89.6019V21.6543H108.31C111.145 21.6543 113.864 22.7806 115.869 24.7854C117.874 26.7902 119 29.5093 119 32.3445V123.211C119 126.046 117.874 128.765 115.869 130.77C113.864 132.775 111.145 133.901 108.31 133.901Z" fill="black"/>
<path d="M89.6017 24.3281H108.31C110.436 24.3281 112.475 25.1728 113.979 26.6764C115.483 28.18 116.327 30.2194 116.327 32.3458V123.212C116.327 125.339 115.483 127.378 113.979 128.882C112.475 130.385 110.436 131.23 108.31 131.23H38.8233C36.6969 131.23 34.6576 130.385 33.154 128.882C31.6504 127.378 30.8057 125.339 30.8057 123.212V32.3458C30.8057 30.2194 31.6504 28.18 33.154 26.6764C34.6576 25.1728 36.6969 24.3281 38.8233 24.3281H89.6017Z" fill="white"/>
<path d="M52.1862 61.7421C51.4775 61.7419 50.7978 61.4602 50.2967 60.959L44.9516 55.6139C44.4648 55.1098 44.1954 54.4348 44.2015 53.734C44.2076 53.0333 44.4887 52.363 44.9842 51.8675C45.4797 51.372 46.15 51.0909 46.8507 51.0848C47.5515 51.0787 48.2266 51.3481 48.7306 51.8349L51.772 54.8763L60.6529 41.5509C60.8476 41.2589 61.098 41.0082 61.3897 40.8129C61.6814 40.6177 62.0087 40.4818 62.3529 40.4131C62.6972 40.3443 63.0515 40.3441 63.3958 40.4123C63.7402 40.4805 64.0677 40.6159 64.3597 40.8106C64.6517 41.0054 64.9025 41.2558 65.0977 41.5475C65.2929 41.8392 65.4288 42.1665 65.4975 42.5107C65.5663 42.8549 65.5666 43.2093 65.4983 43.5536C65.4301 43.898 65.2948 44.2255 65.1 44.5175L54.4098 60.5528C54.1922 60.8835 53.9038 61.1618 53.5654 61.3675C53.2271 61.5732 52.8473 61.7011 52.4535 61.7421C52.3599 61.7421 52.2717 61.7421 52.1862 61.7421Z" fill="#33C455"/>
<path d="M97.6195 51.0521H73.5666C72.8578 51.0521 72.178 50.7706 71.6768 50.2694C71.1756 49.7682 70.894 49.0884 70.894 48.3796C70.894 47.6708 71.1756 46.991 71.6768 46.4898C72.178 45.9886 72.8578 45.707 73.5666 45.707H97.6195C98.3283 45.707 99.0081 45.9886 99.5093 46.4898C100.011 46.991 100.292 47.6708 100.292 48.3796C100.292 49.0884 100.011 49.7682 99.5093 50.2694C99.0081 50.7706 98.3283 51.0521 97.6195 51.0521Z" fill="#BBBACE"/>
<path d="M89.1155 61.7435H73.5666C72.8578 61.7435 72.178 61.462 71.6768 60.9608C71.1756 60.4596 70.894 59.7798 70.894 59.071C70.894 58.3622 71.1756 57.6824 71.6768 57.1812C72.178 56.68 72.8578 56.3984 73.5666 56.3984H89.1155C89.8243 56.3984 90.5041 56.68 91.0053 57.1812C91.5065 57.6824 91.788 58.3622 91.788 59.071C91.788 59.7798 91.5065 60.4596 91.0053 60.9608C90.5041 61.462 89.8243 61.7435 89.1155 61.7435Z" fill="#BBBACE"/>
<path d="M52.1862 88.4686C51.4775 88.4685 50.7978 88.1868 50.2967 87.6856L44.9516 82.3405C44.4648 81.8364 44.1954 81.1613 44.2015 80.4606C44.2076 79.7598 44.4887 79.0895 44.9842 78.594C45.4797 78.0985 46.15 77.8174 46.8507 77.8114C47.5515 77.8053 48.2266 78.0746 48.7306 78.5615L51.772 81.6028L60.6529 68.2775C60.8476 67.9855 61.098 67.7347 61.3897 67.5395C61.6814 67.3443 62.0087 67.2084 62.3529 67.1397C62.6972 67.0709 63.0515 67.0706 63.3958 67.1388C63.7402 67.2071 64.0677 67.3424 64.3597 67.5372C64.6517 67.732 64.9025 67.9824 65.0977 68.2741C65.2929 68.5658 65.4288 68.8931 65.4975 69.2373C65.5663 69.5815 65.5666 69.9359 65.4983 70.2802C65.4301 70.6245 65.2948 70.952 65.1 71.244L54.4098 87.2793C54.1905 87.6079 53.901 87.8839 53.5623 88.0872C53.2236 88.2905 52.8439 88.4162 52.4508 88.4552C52.3599 88.4686 52.2717 88.4686 52.1862 88.4686Z" fill="#33C455"/>
<path d="M97.6195 77.7787H73.5666C72.8578 77.7787 72.178 77.4971 71.6768 76.9959C71.1756 76.4947 70.894 75.8149 70.894 75.1061C70.894 74.3973 71.1756 73.7176 71.6768 73.2164C72.178 72.7152 72.8578 72.4336 73.5666 72.4336H97.6195C98.3283 72.4336 99.0081 72.7152 99.5093 73.2164C100.011 73.7176 100.292 74.3973 100.292 75.1061C100.292 75.8149 100.011 76.4947 99.5093 76.9959C99.0081 77.4971 98.3283 77.7787 97.6195 77.7787Z" fill="#BBBACE"/>
<path d="M89.1155 88.4681H73.5666C72.8578 88.4681 72.178 88.1866 71.6768 87.6854C71.1756 87.1842 70.894 86.5044 70.894 85.7956C70.894 85.0868 71.1756 84.407 71.6768 83.9058C72.178 83.4046 72.8578 83.123 73.5666 83.123H89.1155C89.8243 83.123 90.5041 83.4046 91.0053 83.9058C91.5065 84.407 91.788 85.0868 91.788 85.7956C91.788 86.5044 91.5065 87.1842 91.0053 87.6854C90.5041 88.1866 89.8243 88.4681 89.1155 88.4681Z" fill="#BBBACE"/>
<path d="M52.1862 115.193C51.4775 115.193 50.7978 114.911 50.2967 114.41L44.9516 109.065C44.4648 108.561 44.1954 107.886 44.2015 107.185C44.2076 106.484 44.4887 105.814 44.9842 105.319C45.4797 104.823 46.15 104.542 46.8507 104.536C47.5515 104.53 48.2266 104.799 48.7306 105.286L51.772 108.327L60.6529 95.0021C60.8476 94.7101 61.098 94.4593 61.3897 94.2641C61.6814 94.0689 62.0087 93.933 62.3529 93.8643C62.6972 93.7955 63.0515 93.7952 63.3958 93.8635C63.7402 93.9317 64.0677 94.067 64.3597 94.2618C64.6517 94.4566 64.9025 94.707 65.0977 94.9987C65.2929 95.2904 65.4288 95.6177 65.4975 95.9619C65.5663 96.3061 65.5666 96.6605 65.4983 97.0048C65.4301 97.3491 65.2948 97.6766 65.1 97.9686L54.4098 114.004C54.1922 114.335 53.9038 114.613 53.5654 114.819C53.2271 115.024 52.8473 115.152 52.4535 115.193C52.3599 115.193 52.2717 115.193 52.1862 115.193Z" fill="#33C455"/>
<path d="M97.6195 104.505H73.5666C72.8578 104.505 72.178 104.224 71.6768 103.722C71.1756 103.221 70.894 102.542 70.894 101.833C70.894 101.124 71.1756 100.444 71.6768 99.9429C72.178 99.4417 72.8578 99.1602 73.5666 99.1602H97.6195C98.3283 99.1602 99.0081 99.4417 99.5093 99.9429C100.011 100.444 100.292 101.124 100.292 101.833C100.292 102.542 100.011 103.221 99.5093 103.722C99.0081 104.224 98.3283 104.505 97.6195 104.505Z" fill="#BBBACE"/>
<path d="M89.1155 115.195H73.5666C72.8578 115.195 72.178 114.913 71.6768 114.412C71.1756 113.911 70.894 113.231 70.894 112.522C70.894 111.813 71.1756 111.134 71.6768 110.632C72.178 110.131 72.8578 109.85 73.5666 109.85H89.1155C89.8243 109.85 90.5041 110.131 91.0053 110.632C91.5065 111.134 91.788 111.813 91.788 112.522C91.788 113.231 91.5065 113.911 91.0053 114.412C90.5041 114.913 89.8243 115.195 89.1155 115.195Z" fill="#BBBACE"/>
<path d="M108.31 21.6543H38.8235C35.9883 21.6543 33.2692 22.7806 31.2644 24.7854C29.2596 26.7902 28.1333 29.5093 28.1333 32.3445V123.211C28.1333 126.046 29.2596 128.765 31.2644 130.77C33.2692 132.775 35.9883 133.901 38.8235 133.901H108.31C111.145 133.901 113.864 132.775 115.869 130.77C117.874 128.765 119 126.046 119 123.211V32.3445C119 29.5093 117.874 26.7902 115.869 24.7854C113.864 22.7806 111.145 21.6543 108.31 21.6543ZM113.655 123.211C113.651 124.627 113.086 125.985 112.085 126.986C111.083 127.988 109.726 128.552 108.31 128.556H38.8235C37.4072 128.552 36.0501 127.988 35.0486 126.986C34.0471 125.985 33.4826 124.627 33.4784 123.211V32.3445C33.4826 30.9282 34.0471 29.5711 35.0486 28.5696C36.0501 27.5681 37.4072 27.0036 38.8235 26.9994H108.31C109.726 27.0036 111.083 27.5681 112.085 28.5696C113.086 29.5711 113.651 30.9282 113.655 32.3445V123.211Z" fill="#B27246"/>
<path d="M89.6021 21.6546V26.9997C89.6021 27.7085 89.3205 28.3883 88.8193 28.8895C88.3181 29.3907 87.6383 29.6722 86.9295 29.6722H60.204C59.4952 29.6722 58.8155 29.3907 58.3143 28.8895C57.8131 28.3883 57.5315 27.7085 57.5315 26.9997V21.6546C57.5315 20.9458 57.8131 20.266 58.3143 19.7648C58.8155 19.2636 59.4952 18.982 60.204 18.982H63.518C64.5337 17.2479 66.011 15.8299 67.7853 14.8861C69.5596 13.9424 71.5611 13.5099 73.5668 13.6369C75.5756 13.5134 77.5795 13.9472 79.3574 14.8904C81.1353 15.8336 82.6181 17.2495 83.6423 18.982H86.9295C87.6383 18.982 88.3181 19.2636 88.8193 19.7648C89.3205 20.266 89.6021 20.9458 89.6021 21.6546Z" fill="#E0DFE5"/>
</svg>
