<svg width="148" height="148" viewBox="0 0 148 148" fill="none" xmlns="http://www.w3.org/2000/svg">
<path d="M21.1333 15.0332H126.867C127.945 15.0332 128.98 15.4617 129.742 16.2243C130.505 16.987 130.933 18.0213 130.933 19.0999V94.3332H17.0667V19.0999C17.0667 18.0213 17.4951 16.987 18.2577 16.2243C19.0204 15.4617 20.0548 15.0332 21.1333 15.0332Z" fill="#E4F0F4"/>
<path d="M54.3561 110.6H93.6441L98.4001 118.733H49.6001L54.3561 110.6Z" fill="#263F51"/>
<path d="M62.2881 100.434L47.1398 130.71C46.6403 131.641 45.7979 132.342 44.791 132.663C43.784 132.984 42.6917 132.9 41.7454 132.43C40.7991 131.959 40.0731 131.139 39.7212 130.142C39.3694 129.145 39.4193 128.051 39.8605 127.091L53.1788 100.434L53.6668 98.4004H61.8001L62.2881 100.434Z" fill="#203242"/>
<path d="M85.7119 100.434L100.86 130.71C101.36 131.641 102.202 132.342 103.209 132.663C104.216 132.984 105.308 132.9 106.255 132.43C107.201 131.959 107.927 131.139 108.279 130.142C108.631 129.145 108.581 128.051 108.14 127.091L94.8213 100.434L94.3333 98.4004H86.1999L85.7119 100.434Z" fill="#203242"/>
<path d="M130.933 92.3008H17.0668C15.9438 92.3008 15.0334 93.2111 15.0334 94.3341V98.4008C15.0334 99.5238 15.9438 100.434 17.0668 100.434H130.933C132.056 100.434 132.967 99.5238 132.967 98.4008V94.3341C132.967 93.2111 132.056 92.3008 130.933 92.3008Z" fill="#263F51"/>
<path d="M63.8334 57.7333C61.2728 61.1474 57.703 63.6693 53.6295 64.9418C49.556 66.2142 45.1854 66.1728 41.1368 64.8232C37.0882 63.4737 33.5668 60.8845 31.0715 57.4224C28.5762 53.9604 27.2334 49.8009 27.2334 45.5333L29.2667 43.5H35.3667L37.4001 45.5333C37.4001 47.6671 38.0714 49.7469 39.3191 51.4779C40.5668 53.2089 42.3274 54.5035 44.3518 55.1783C46.3761 55.853 48.5614 55.8738 50.5981 55.2376C52.6348 54.6013 54.4198 53.3404 55.7001 51.6333H57.7334L63.8334 55.7V57.7333Z" fill="#3350E2"/>
<path d="M47.5667 25.1992L49.6001 27.2326V33.3326L47.5667 35.3659C44.8704 35.3659 42.2844 36.437 40.3778 38.3436C38.4712 40.2503 37.4001 42.8362 37.4001 45.5326H27.2334C27.2334 40.1398 29.3757 34.968 33.1889 31.1547C37.0021 27.3415 42.174 25.1992 47.5667 25.1992Z" fill="#F2AB1C"/>
<path d="M120.767 45.5333C120.767 48.2035 120.241 50.8476 119.219 53.3146C118.197 55.7815 116.699 58.023 114.811 59.9112C112.923 61.7993 110.681 63.297 108.214 64.3189C105.748 65.3407 103.103 65.8667 100.433 65.8667L98.3999 43.5L120.767 45.5333Z" fill="#3350E2"/>
<path d="M100.433 43.4993V65.866C96.3687 65.863 92.3982 64.6418 89.0344 62.3601C85.6706 60.0784 83.0678 56.8409 81.562 53.0654C80.0562 49.29 79.7165 45.1499 80.5867 41.1794C81.4569 37.209 83.4971 33.5905 86.444 30.791L100.433 43.4993Z" fill="#F2AB1C"/>
<path d="M120.767 45.5336H100.433L86.4441 30.7919C89.3265 28.0529 92.949 26.2196 96.863 25.5191C100.777 24.8186 104.811 25.2815 108.464 26.8507C112.117 28.4199 115.23 31.0263 117.417 34.3471C119.604 37.668 120.769 41.5574 120.767 45.5336Z" fill="#DB464E"/>
<path d="M67.9 45.5326C67.9013 49.9323 66.4742 54.2136 63.8333 57.7326L55.7 51.6326C57.0277 49.8769 57.7421 47.7337 57.7333 45.5326C57.7333 42.8362 56.6622 40.2503 54.7556 38.3436C52.8489 36.437 50.263 35.3659 47.5667 35.3659V25.1992C52.9594 25.1992 58.1312 27.3415 61.9445 31.1547C65.7577 34.968 67.9 40.1398 67.9 45.5326Z" fill="#DB464E"/>
<path d="M35.3666 76.0335H31.2999C30.7607 76.0335 30.2435 75.8192 29.8622 75.4379C29.4808 75.0566 29.2666 74.5394 29.2666 74.0001C29.2666 73.4609 29.4808 72.9437 29.8622 72.5623C30.2435 72.181 30.7607 71.9668 31.2999 71.9668H35.3666C35.9059 71.9668 36.4231 72.181 36.8044 72.5623C37.1857 72.9437 37.3999 73.4609 37.3999 74.0001C37.3999 74.5394 37.1857 75.0566 36.8044 75.4379C36.4231 75.8192 35.9059 76.0335 35.3666 76.0335Z" fill="#C0D7DD"/>
<path d="M63.8332 76.0335H43.4999C42.9606 76.0335 42.4434 75.8192 42.0621 75.4379C41.6808 75.0566 41.4666 74.5394 41.4666 74.0001C41.4666 73.4609 41.6808 72.9437 42.0621 72.5623C42.4434 72.181 42.9606 71.9668 43.4999 71.9668H63.8332C64.3725 71.9668 64.8897 72.181 65.271 72.5623C65.6523 72.9437 65.8666 73.4609 65.8666 74.0001C65.8666 74.5394 65.6523 75.0566 65.271 75.4379C64.8897 75.8192 64.3725 76.0335 63.8332 76.0335Z" fill="#C0D7DD"/>
<path d="M35.3666 84.1663H31.2999C30.7607 84.1663 30.2435 83.9521 29.8622 83.5707C29.4808 83.1894 29.2666 82.6722 29.2666 82.1329C29.2666 81.5937 29.4808 81.0765 29.8622 80.6952C30.2435 80.3138 30.7607 80.0996 31.2999 80.0996H35.3666C35.9059 80.0996 36.4231 80.3138 36.8044 80.6952C37.1857 81.0765 37.3999 81.5937 37.3999 82.1329C37.3999 82.6722 37.1857 83.1894 36.8044 83.5707C36.4231 83.9521 35.9059 84.1663 35.3666 84.1663Z" fill="#C0D7DD"/>
<path d="M63.8332 84.1663H43.4999C42.9606 84.1663 42.4434 83.9521 42.0621 83.5707C41.6808 83.1894 41.4666 82.6722 41.4666 82.1329C41.4666 81.5937 41.6808 81.0765 42.0621 80.6952C42.4434 80.3138 42.9606 80.0996 43.4999 80.0996H63.8332C64.3725 80.0996 64.8897 80.3138 65.271 80.6952C65.6523 81.0765 65.8666 81.5937 65.8666 82.1329C65.8666 82.6722 65.6523 83.1894 65.271 83.5707C64.8897 83.9521 64.3725 84.1663 63.8332 84.1663Z" fill="#C0D7DD"/>
<path d="M88.2333 76.0335H84.1666C83.6274 76.0335 83.1102 75.8192 82.7288 75.4379C82.3475 75.0566 82.1333 74.5394 82.1333 74.0001C82.1333 73.4609 82.3475 72.9437 82.7288 72.5623C83.1102 72.181 83.6274 71.9668 84.1666 71.9668H88.2333C88.7726 71.9668 89.2898 72.181 89.6711 72.5623C90.0524 72.9437 90.2666 73.4609 90.2666 74.0001C90.2666 74.5394 90.0524 75.0566 89.6711 75.4379C89.2898 75.8192 88.7726 76.0335 88.2333 76.0335Z" fill="#C0D7DD"/>
<path d="M116.7 76.0335H96.3666C95.8273 76.0335 95.3101 75.8192 94.9288 75.4379C94.5475 75.0566 94.3333 74.5394 94.3333 74.0001C94.3333 73.4609 94.5475 72.9437 94.9288 72.5623C95.3101 72.181 95.8273 71.9668 96.3666 71.9668H116.7C117.239 71.9668 117.756 72.181 118.138 72.5623C118.519 72.9437 118.733 73.4609 118.733 74.0001C118.733 74.5394 118.519 75.0566 118.138 75.4379C117.756 75.8192 117.239 76.0335 116.7 76.0335Z" fill="#C0D7DD"/>
<path d="M88.2333 84.1663H84.1666C83.6274 84.1663 83.1102 83.9521 82.7288 83.5707C82.3475 83.1894 82.1333 82.6722 82.1333 82.1329C82.1333 81.5937 82.3475 81.0765 82.7288 80.6952C83.1102 80.3138 83.6274 80.0996 84.1666 80.0996H88.2333C88.7726 80.0996 89.2898 80.3138 89.6711 80.6952C90.0524 81.0765 90.2666 81.5937 90.2666 82.1329C90.2666 82.6722 90.0524 83.1894 89.6711 83.5707C89.2898 83.9521 88.7726 84.1663 88.2333 84.1663Z" fill="#C0D7DD"/>
<path d="M116.7 84.1663H96.3666C95.8273 84.1663 95.3101 83.9521 94.9288 83.5707C94.5475 83.1894 94.3333 82.6722 94.3333 82.1329C94.3333 81.5937 94.5475 81.0765 94.9288 80.6952C95.3101 80.3138 95.8273 80.0996 96.3666 80.0996H116.7C117.239 80.0996 117.756 80.3138 118.138 80.6952C118.519 81.0765 118.733 81.5937 118.733 82.1329C118.733 82.6722 118.519 83.1894 118.138 83.5707C117.756 83.9521 117.239 84.1663 116.7 84.1663Z" fill="#C0D7DD"/>
</svg>
