<svg width="148" height="148" viewBox="0 0 148 148" fill="none" xmlns="http://www.w3.org/2000/svg">
<g clip-path="url(#clip0_16792_33312)">
<path d="M78.506 109.517L72.2454 115.96C71.557 116.67 70.6506 117.129 69.6708 117.264C68.6911 117.398 67.6945 117.201 66.8402 116.703L41.5217 102.085C40.6631 101.594 39.9937 100.83 39.6204 99.9143C39.247 98.9985 39.1912 97.9841 39.4619 97.0329L41.9117 88.3894L43.4447 85.7944L79.9868 106.892L78.506 109.517Z" fill="#6BA9C2"/>
<path d="M99.242 94.5181L103.63 98.1302C105.385 99.5725 106.571 101.591 106.976 103.827C107.381 106.062 106.978 108.368 105.841 110.335L88.812 139.829C88.4124 140.522 87.7541 141.027 86.982 141.234C86.2099 141.441 85.3872 141.332 84.6949 140.933L81.2495 138.943C80.7265 138.642 80.306 138.191 80.0424 137.648C79.7789 137.104 79.6845 136.495 79.7715 135.897L83.517 109.94L99.242 94.5181Z" fill="#E23B58"/>
<path d="M39.0401 84.2617L18.4329 100.484C17.9591 100.858 17.3839 101.081 16.7819 101.125C16.1798 101.168 15.5786 101.029 15.0561 100.727L11.6107 98.7379C10.9185 98.3383 10.4133 97.68 10.2064 96.9079C9.99955 96.1357 10.1079 95.3131 10.5075 94.6208L27.5363 65.1261C28.6704 63.1578 30.4668 61.6563 32.6051 60.8893C34.7434 60.1224 37.0846 60.1399 39.2112 60.9388L44.5332 62.9326L39.0401 84.2617Z" fill="#E23B58"/>
<path d="M110.018 78.9882C103.479 90.2438 95.1313 100.345 85.3085 108.886C84.3818 109.687 83.2279 110.179 82.0082 110.292C80.7885 110.405 79.5639 110.134 78.5056 109.518L41.9113 88.3898C40.8479 87.7817 40.0012 86.8565 39.4894 85.7436C38.9775 84.6307 38.8263 83.3857 39.0566 82.1826C41.542 69.4053 46.1159 57.1249 52.5944 45.8349C58.7478 34.893 67.4379 25.5882 77.9342 18.7024L82.6256 17.9308L119.168 39.0284L120.845 43.477C120.13 56.0101 116.417 68.1883 110.018 78.9882Z" fill="#95BFD0"/>
<path d="M79.7994 65.0204C85.5656 68.3495 92.9388 66.3739 96.2679 60.6077C99.597 54.8415 97.6213 47.4683 91.8552 44.1392C86.089 40.8101 78.7158 42.7857 75.3867 48.5519C72.0576 54.3181 74.0332 61.6913 79.7994 65.0204Z" fill="white"/>
<path d="M74.8748 79.5795L69.6545 76.5656C68.213 75.7333 66.3697 76.2272 65.5374 77.6687L44.4398 114.211C43.6075 115.652 44.1014 117.496 45.543 118.328L50.7633 121.342C52.2048 122.174 54.0481 121.68 54.8804 120.239L75.978 83.6966C76.8103 82.2551 76.3164 80.4118 74.8748 79.5795Z" fill="#E23B58"/>
<path d="M120.845 43.4781L77.9342 18.7035C88.0238 12.115 99.6174 8.18867 111.634 7.29077C112.094 7.2665 112.55 7.37602 112.949 7.60605C113.347 7.83609 113.67 8.17676 113.879 8.58677C119.11 19.4425 121.506 31.446 120.845 43.4781Z" fill="#E23B58"/>
</g>
<defs>
<clipPath id="clip0_16792_33312">
<rect width="148" height="148" fill="white"/>
</clipPath>
</defs>
</svg>
